solid Sketchup models ankle
facet normal -1.0 -9.199472238408502e-34 7.839699343632642e-17
  outer loop
    vertex 115.73519135689506 100.28603073465699 0.08000000000000071
    vertex 115.73519135689506 98.78406350155343 -1.127986593019159e-15
    vertex 115.73519135689506 98.78406350155343 0.08000000000000071
  endloop
endfacet
facet normal -1.0 -9.199472238408502e-34 7.839699343632642e-17
  outer loop
    vertex 115.73519135689506 98.78406350155343 -1.127986593019159e-15
    vertex 115.73519135689506 100.28603073465699 0.08000000000000071
    vertex 115.73519135689506 100.28603073465699 -1.127986593019159e-15
  endloop
endfacet
facet normal 2.3046926912344143e-32 1.0 -8.292450833662327e-17
  outer loop
    vertex 114.83736182671241 98.78406350155343 0.08000000000000071
    vertex 114.96419236630042 98.78406350155343 -8.459899447643693e-16
    vertex 114.83736182671241 98.78406350155343 -8.459899447643693e-16
  endloop
endfacet
facet normal 2.3046926912344143e-32 1.0 -8.292450833662327e-17
  outer loop
    vertex 114.96419236630042 98.78406350155343 -8.459899447643693e-16
    vertex 114.83736182671241 98.78406350155343 0.08000000000000071
    vertex 114.96419236630042 98.78406350155343 0.08000000000000071
  endloop
endfacet
facet normal -5.512842847342899e-32 1.0 -8.292450833662327e-17
  outer loop
    vertex 115.44356690080326 98.78406350155343 -8.459899447643693e-16
    vertex 115.73519135689506 98.78406350155343 0.08000000000000071
    vertex 115.73519135689506 98.78406350155343 -1.127986593019159e-15
  endloop
endfacet
facet normal -5.512842847342899e-32 1.0 -8.292450833662327e-17
  outer loop
    vertex 115.73519135689506 98.78406350155343 0.08000000000000071
    vertex 115.44356690080326 98.78406350155343 -8.459899447643693e-16
    vertex 115.44356690080326 98.78406350155343 0.08000000000000071
  endloop
endfacet
facet normal 1.0 -8.279525014567653e-33 -7.839699343632642e-17
  outer loop
    vertex 114.83736182671241 100.28603073465699 -1.127986593019159e-15
    vertex 114.83736182671241 98.78406350155343 0.08000000000000071
    vertex 114.83736182671241 98.78406350155343 -8.459899447643693e-16
  endloop
endfacet
facet normal 1.0 -8.279525014567653e-33 -7.839699343632642e-17
  outer loop
    vertex 114.83736182671241 98.78406350155343 0.08000000000000071
    vertex 114.83736182671241 100.28603073465699 -1.127986593019159e-15
    vertex 114.83736182671241 100.28603073465699 0.08000000000000071
  endloop
endfacet
facet normal 0.0 1.0 -8.292450833662327e-17
  outer loop
    vertex 114.96419236630042 98.78406350155343 0.08000000000000071
    vertex 115.44356690080326 98.78406350155343 -8.459899447643693e-16
    vertex 114.96419236630042 98.78406350155343 -8.459899447643693e-16
  endloop
endfacet
facet normal 0.0 1.0 -8.292450833662327e-17
  outer loop
    vertex 115.44356690080326 98.78406350155343 -8.459899447643693e-16
    vertex 114.96419236630042 98.78406350155343 0.08000000000000071
    vertex 115.44356690080326 98.78406350155343 0.08000000000000071
  endloop
endfacet
facet normal 0.0 0.0 1.0
  outer loop
    vertex 116.47455711475146 98.33462926879656 0.3599999999999994
    vertex 116.46873416098883 100.47372185908627 0.3599999999999994
    vertex 116.46873416098883 98.33462926879656 0.3599999999999994
  endloop
endfacet
facet normal 0.0 0.0 1.0
  outer loop
    vertex 116.46873416098883 100.47372185908627 0.3599999999999994
    vertex 116.47455711475146 98.33462926879656 0.3599999999999994
    vertex 116.47455711475146 100.47372185908627 0.3599999999999994
  endloop
endfacet
facet normal 0.0 0.0 -1.0
  outer loop
    vertex 113.6332571147517 101.12057909875791 -5.639932965095795e-16
    vertex 114.83736182671241 100.28603073465699 -1.127986593019159e-15
    vertex 113.6332571147517 97.61756750355791 -5.639932965095795e-16
  endloop
endfacet
facet normal 0.0 0.0 -1.0
  outer loop
    vertex 114.83736182671241 100.28603073465699 -1.127986593019159e-15
    vertex 113.6332571147517 101.12057909875791 -5.639932965095795e-16
    vertex 116.46873416098883 101.12057909875791 -5.639932965095795e-16
  endloop
endfacet
facet normal 0.0 0.0 -1.0
  outer loop
    vertex 114.83736182671241 100.28603073465699 -1.127986593019159e-15
    vertex 116.46873416098883 101.12057909875791 -5.639932965095795e-16
    vertex 115.73519135689506 100.28603073465699 -1.127986593019159e-15
  endloop
endfacet
facet normal 0.0 0.0 -1.0
  outer loop
    vertex 115.73519135689506 100.28603073465699 -1.127986593019159e-15
    vertex 116.46873416098883 101.12057909875791 -5.639932965095795e-16
    vertex 115.73519135689506 98.78406350155343 -1.127986593019159e-15
  endloop
endfacet
facet normal 0.0 0.0 -1.0
  outer loop
    vertex 113.6332571147517 97.61756750355791 -5.639932965095795e-16
    vertex 114.83736182671241 98.78406350155343 -8.459899447643693e-16
    vertex 116.46873416098883 97.61756750355791 -5.639932965095795e-16
  endloop
endfacet
facet normal 0.0 0.0 -1.0
  outer loop
    vertex 114.83736182671241 98.78406350155343 -8.459899447643693e-16
    vertex 113.6332571147517 97.61756750355791 -5.639932965095795e-16
    vertex 114.83736182671241 100.28603073465699 -1.127986593019159e-15
  endloop
endfacet
facet normal 0.0 0.0 -1.0
  outer loop
    vertex 116.46873416098883 97.61756750355791 -5.639932965095795e-16
    vertex 114.83736182671241 98.78406350155343 -8.459899447643693e-16
    vertex 114.96419236630042 98.78406350155343 -8.459899447643693e-16
  endloop
endfacet
facet normal 0.0 0.0 -1.0
  outer loop
    vertex 116.46873416098883 97.61756750355791 -5.639932965095795e-16
    vertex 114.96419236630042 98.78406350155343 -8.459899447643693e-16
    vertex 115.44356690080326 98.78406350155343 -8.459899447643693e-16
  endloop
endfacet
facet normal 0.0 0.0 -1.0
  outer loop
    vertex 116.46873416098883 97.61756750355791 -5.639932965095795e-16
    vertex 115.44356690080326 98.78406350155343 -8.459899447643693e-16
    vertex 115.73519135689506 98.78406350155343 -1.127986593019159e-15
  endloop
endfacet
facet normal 0.0 0.0 -1.0
  outer loop
    vertex 116.46873416098883 97.61756750355791 -5.639932965095795e-16
    vertex 115.73519135689506 98.78406350155343 -1.127986593019159e-15
    vertex 116.46873416098883 101.12057909875791 -5.639932965095795e-16
  endloop
endfacet
facet normal -1.0 0.0 0.0
  outer loop
    vertex 115.25252585162467 97.79631099172896 0.3599999999999994
    vertex 115.25252585162467 97.61756750355791 0.07999999999999957
    vertex 115.25252585162467 97.61756750355791 0.3599999999999994
  endloop
endfacet
facet normal -1.0 0.0 0.0
  outer loop
    vertex 115.25252585162467 97.61756750355791 0.07999999999999957
    vertex 115.25252585162467 97.79631099172896 0.3599999999999994
    vertex 115.25252585162467 97.79631099172896 0.07999999999999957
  endloop
endfacet
facet normal 0.0 0.0 1.0
  outer loop
    vertex 115.25252585162467 97.61756750355791 0.07999999999999957
    vertex 114.64719444158612 97.79631099172896 0.07999999999999957
    vertex 114.64719444158612 97.61756750355791 0.07999999999999957
  endloop
endfacet
facet normal 0.0 0.0 1.0
  outer loop
    vertex 114.64719444158612 97.79631099172896 0.07999999999999957
    vertex 115.25252585162467 97.61756750355791 0.07999999999999957
    vertex 115.25252585162467 97.79631099172896 0.07999999999999957
  endloop
endfacet
facet normal 1.0 0.0 0.0
  outer loop
    vertex 113.87101847119462 100.88281774231496 0.07999999999999957
    vertex 113.87101847119462 97.79631099172896 0.3599999999999994
    vertex 113.87101847119462 97.79631099172896 0.07999999999999957
  endloop
endfacet
facet normal 1.0 0.0 0.0
  outer loop
    vertex 113.87101847119462 97.79631099172896 0.3599999999999994
    vertex 113.87101847119462 100.88281774231496 0.07999999999999957
    vertex 113.87101847119462 100.88281774231496 0.3599999999999994
  endloop
endfacet
facet normal -1.0 0.0 0.0
  outer loop
    vertex 116.23679575830853 100.88281774231496 0.3599999999999994
    vertex 116.23679575830853 97.79631099172896 0.07999999999999957
    vertex 116.23679575830853 97.79631099172896 0.3599999999999994
  endloop
endfacet
facet normal -1.0 0.0 0.0
  outer loop
    vertex 116.23679575830853 97.79631099172896 0.07999999999999957
    vertex 116.23679575830853 100.88281774231496 0.3599999999999994
    vertex 116.23679575830853 100.88281774231496 0.07999999999999957
  endloop
endfacet
facet normal 0.0 1.0 0.0
  outer loop
    vertex 113.87101847119462 97.79631099172896 0.3599999999999994
    vertex 114.64719444158612 97.79631099172896 0.07999999999999957
    vertex 113.87101847119462 97.79631099172896 0.07999999999999957
  endloop
endfacet
facet normal 0.0 1.0 0.0
  outer loop
    vertex 114.64719444158612 97.79631099172896 0.07999999999999957
    vertex 113.87101847119462 97.79631099172896 0.3599999999999994
    vertex 114.64719444158612 97.79631099172896 0.3599999999999994
  endloop
endfacet
facet normal 1.0 0.0 0.0
  outer loop
    vertex 114.64719444158612 97.79631099172896 0.07999999999999957
    vertex 114.64719444158612 97.61756750355791 0.3599999999999994
    vertex 114.64719444158612 97.61756750355791 0.07999999999999957
  endloop
endfacet
facet normal 1.0 0.0 0.0
  outer loop
    vertex 114.64719444158612 97.61756750355791 0.3599999999999994
    vertex 114.64719444158612 97.79631099172896 0.07999999999999957
    vertex 114.64719444158612 97.79631099172896 0.3599999999999994
  endloop
endfacet
facet normal 0.0 -1.0 0.0
  outer loop
    vertex 116.46873416098883 97.61756750355791 -5.639932965095795e-16
    vertex 115.25252585162467 97.61756750355791 0.07999999999999957
    vertex 113.6332571147517 97.61756750355791 -5.639932965095795e-16
  endloop
endfacet
facet normal 0.0 -1.0 0.0
  outer loop
    vertex 115.25252585162467 97.61756750355791 0.07999999999999957
    vertex 116.46873416098883 97.61756750355791 -5.639932965095795e-16
    vertex 116.46873416098883 97.61756750355791 0.3599999999999994
  endloop
endfacet
facet normal 0.0 -1.0 0.0
  outer loop
    vertex 115.25252585162467 97.61756750355791 0.07999999999999957
    vertex 116.46873416098883 97.61756750355791 0.3599999999999994
    vertex 115.25252585162467 97.61756750355791 0.3599999999999994
  endloop
endfacet
facet normal 0.0 -1.0 0.0
  outer loop
    vertex 113.6332571147517 97.61756750355791 -5.639932965095795e-16
    vertex 114.64719444158612 97.61756750355791 0.07999999999999957
    vertex 113.6332571147517 97.61756750355791 0.3599999999999994
  endloop
endfacet
facet normal 0.0 -1.0 0.0
  outer loop
    vertex 114.64719444158612 97.61756750355791 0.07999999999999957
    vertex 113.6332571147517 97.61756750355791 -5.639932965095795e-16
    vertex 115.25252585162467 97.61756750355791 0.07999999999999957
  endloop
endfacet
facet normal 0.0 -1.0 0.0
  outer loop
    vertex 113.6332571147517 97.61756750355791 0.3599999999999994
    vertex 114.64719444158612 97.61756750355791 0.07999999999999957
    vertex 114.64719444158612 97.61756750355791 0.3599999999999994
  endloop
endfacet
facet normal 0.0 -1.0 0.0
  outer loop
    vertex 116.23679575830853 100.88281774231496 0.3599999999999994
    vertex 113.87101847119462 100.88281774231496 0.07999999999999957
    vertex 116.23679575830853 100.88281774231496 0.07999999999999957
  endloop
endfacet
facet normal 0.0 -1.0 0.0
  outer loop
    vertex 113.87101847119462 100.88281774231496 0.07999999999999957
    vertex 116.23679575830853 100.88281774231496 0.3599999999999994
    vertex 113.87101847119462 100.88281774231496 0.3599999999999994
  endloop
endfacet
facet normal 0.0 1.0 0.0
  outer loop
    vertex 115.25252585162467 97.79631099172896 0.3599999999999994
    vertex 116.23679575830853 97.79631099172896 0.07999999999999957
    vertex 115.25252585162467 97.79631099172896 0.07999999999999957
  endloop
endfacet
facet normal 0.0 1.0 0.0
  outer loop
    vertex 116.23679575830853 97.79631099172896 0.07999999999999957
    vertex 115.25252585162467 97.79631099172896 0.3599999999999994
    vertex 116.23679575830853 97.79631099172896 0.3599999999999994
  endloop
endfacet
facet normal -1.0 0.0 0.0
  outer loop
    vertex 113.6332571147517 101.12057909875791 0.3599999999999994
    vertex 113.6332571147517 97.61756750355791 -5.639932965095795e-16
    vertex 113.6332571147517 97.61756750355791 0.3599999999999994
  endloop
endfacet
facet normal -1.0 0.0 0.0
  outer loop
    vertex 113.6332571147517 97.61756750355791 -5.639932965095795e-16
    vertex 113.6332571147517 101.12057909875791 0.3599999999999994
    vertex 113.6332571147517 101.12057909875791 -5.639932965095795e-16
  endloop
endfacet
facet normal -3.9587025734078755e-17 -1.1958103588238986e-16 1.0
  outer loop
    vertex 115.25252585162467 97.79631099172896 0.07999999999999957
    vertex 114.83736182671241 98.78406350155343 0.08000000000000071
    vertex 114.64719444158612 97.79631099172896 0.07999999999999957
  endloop
endfacet
facet normal -3.9587025734078755e-17 -1.1958103588238986e-16 1.0
  outer loop
    vertex 114.83736182671241 98.78406350155343 0.08000000000000071
    vertex 115.25252585162467 97.79631099172896 0.07999999999999957
    vertex 114.96419236630042 98.78406350155343 0.08000000000000071
  endloop
endfacet
facet normal -3.9587025734078755e-17 -1.1958103588238986e-16 1.0
  outer loop
    vertex 114.96419236630042 98.78406350155343 0.08000000000000071
    vertex 115.25252585162467 97.79631099172896 0.07999999999999957
    vertex 115.44356690080326 98.78406350155343 0.08000000000000071
  endloop
endfacet
facet normal -3.9587025734078755e-17 -1.1958103588238986e-16 1.0
  outer loop
    vertex 115.44356690080326 98.78406350155343 0.08000000000000071
    vertex 115.25252585162467 97.79631099172896 0.07999999999999957
    vertex 116.23679575830853 97.79631099172896 0.07999999999999957
  endloop
endfacet
facet normal -3.9587025734078755e-17 -1.1958103588238986e-16 1.0
  outer loop
    vertex 115.44356690080326 98.78406350155343 0.08000000000000071
    vertex 116.23679575830853 97.79631099172896 0.07999999999999957
    vertex 115.73519135689506 98.78406350155343 0.08000000000000071
  endloop
endfacet
facet normal -3.9587025734078755e-17 -1.1958103588238986e-16 1.0
  outer loop
    vertex 115.73519135689506 98.78406350155343 0.08000000000000071
    vertex 116.23679575830853 97.79631099172896 0.07999999999999957
    vertex 115.73519135689506 100.28603073465699 0.08000000000000071
  endloop
endfacet
facet normal -3.9587025734078755e-17 -1.1958103588238986e-16 1.0
  outer loop
    vertex 114.64719444158612 97.79631099172896 0.07999999999999957
    vertex 113.87101847119462 100.88281774231496 0.07999999999999957
    vertex 113.87101847119462 97.79631099172896 0.07999999999999957
  endloop
endfacet
facet normal -3.9587025734078755e-17 -1.1958103588238986e-16 1.0
  outer loop
    vertex 113.87101847119462 100.88281774231496 0.07999999999999957
    vertex 114.64719444158612 97.79631099172896 0.07999999999999957
    vertex 114.83736182671241 100.28603073465699 0.08000000000000071
  endloop
endfacet
facet normal -3.9587025734078755e-17 -1.1958103588238986e-16 1.0
  outer loop
    vertex 113.87101847119462 100.88281774231496 0.07999999999999957
    vertex 114.83736182671241 100.28603073465699 0.08000000000000071
    vertex 116.23679575830853 100.88281774231496 0.07999999999999957
  endloop
endfacet
facet normal -3.9587025734078755e-17 -1.1958103588238986e-16 1.0
  outer loop
    vertex 114.83736182671241 100.28603073465699 0.08000000000000071
    vertex 114.64719444158612 97.79631099172896 0.07999999999999957
    vertex 114.83736182671241 98.78406350155343 0.08000000000000071
  endloop
endfacet
facet normal -3.9587025734078755e-17 -1.1958103588238986e-16 1.0
  outer loop
    vertex 116.23679575830853 100.88281774231496 0.07999999999999957
    vertex 114.83736182671241 100.28603073465699 0.08000000000000071
    vertex 115.73519135689506 100.28603073465699 0.08000000000000071
  endloop
endfacet
facet normal -3.9587025734078755e-17 -1.1958103588238986e-16 1.0
  outer loop
    vertex 116.23679575830853 100.88281774231496 0.07999999999999957
    vertex 115.73519135689506 100.28603073465699 0.08000000000000071
    vertex 116.23679575830853 97.79631099172896 0.07999999999999957
  endloop
endfacet
facet normal 0.0 0.0 1.0
  outer loop
    vertex 116.28344271292558 97.73167241308325 0.35999999999999965
    vertex 116.28648977263138 100.92693897691917 0.3599999999999994
    vertex 116.26842531910957 100.93442151856475 0.3599999999999994
  endloop
endfacet
facet normal 0.0 0.0 1.0
  outer loop
    vertex 116.28648977263138 100.92693897691917 0.3599999999999994
    vertex 116.28344271292558 97.73167241308325 0.35999999999999965
    vertex 116.28606642430131 97.75160147955614 0.35999999999999965
  endloop
endfacet
facet normal 0.0 0.0 1.0
  outer loop
    vertex 116.28648977263138 100.92693897691917 0.3599999999999994
    vertex 116.28606642430131 97.75160147955614 0.35999999999999965
    vertex 116.29375875683415 97.77017241308327 0.35999999999999965
  endloop
endfacet
facet normal 0.0 0.0 1.0
  outer loop
    vertex 116.28648977263138 100.92693897691917 0.3599999999999994
    vertex 116.29375875683415 97.77017241308327 0.35999999999999965
    vertex 116.30587531910956 100.9243868213082 0.3599999999999994
  endloop
endfacet
facet normal 0.0 0.0 1.0
  outer loop
    vertex 116.30587531910956 100.9243868213082 0.3599999999999994
    vertex 116.29375875683415 97.77017241308327 0.35999999999999965
    vertex 116.30599549077421 97.78611963523464 0.35999999999999965
  endloop
endfacet
facet normal 0.0 0.0 1.0
  outer loop
    vertex 116.30587531910956 100.9243868213082 0.3599999999999994
    vertex 116.30599549077421 97.78611963523464 0.35999999999999965
    vertex 116.32526086558771 100.92693897691917 0.3599999999999994
  endloop
endfacet
facet normal 0.0 0.0 1.0
  outer loop
    vertex 116.32526086558771 100.92693897691917 0.3599999999999994
    vertex 116.30599549077421 97.78611963523464 0.35999999999999965
    vertex 116.32194271292559 97.79835636917466 0.35999999999999965
  endloop
endfacet
facet normal 0.0 0.0 1.0
  outer loop
    vertex 116.32526086558771 100.92693897691917 0.3599999999999994
    vertex 116.32194271292559 97.79835636917466 0.35999999999999965
    vertex 116.34051364645266 97.80604870170751 0.35999999999999965
  endloop
endfacet
facet normal 0.0 0.0 1.0
  outer loop
    vertex 116.32526086558771 100.92693897691917 0.3599999999999994
    vertex 116.34051364645266 97.80604870170751 0.35999999999999965
    vertex 116.34332531910955 100.93442151856475 0.3599999999999994
  endloop
endfacet
facet normal 0.0 0.0 1.0
  outer loop
    vertex 116.34332531910955 100.93442151856475 0.3599999999999994
    vertex 116.34051364645266 97.80604870170751 0.35999999999999965
    vertex 116.36044271292553 97.80867241308329 0.35999999999999965
  endloop
endfacet
facet normal 0.0 0.0 1.0
  outer loop
    vertex 116.34332531910955 100.93442151856475 0.3599999999999994
    vertex 116.36044271292553 97.80867241308329 0.35999999999999965
    vertex 116.35883761702043 100.94632452339734 0.3599999999999994
  endloop
endfacet
facet normal 0.0 0.0 1.0
  outer loop
    vertex 116.35883761702043 100.94632452339734 0.3599999999999994
    vertex 116.36044271292553 97.80867241308329 0.35999999999999965
    vertex 116.370740621853 100.96183682130821 0.3599999999999994
  endloop
endfacet
facet normal 0.0 0.0 1.0
  outer loop
    vertex 116.370740621853 100.96183682130821 0.3599999999999994
    vertex 116.36044271292553 97.80867241308329 0.35999999999999965
    vertex 116.38037177939844 97.80604870170751 0.35999999999999965
  endloop
endfacet
facet normal 0.0 0.0 1.0
  outer loop
    vertex 116.370740621853 100.96183682130821 0.3599999999999994
    vertex 116.38037177939844 97.80604870170751 0.35999999999999965
    vertex 116.3782231634986 100.97990127483004 0.3599999999999994
  endloop
endfacet
facet normal 0.0 0.0 1.0
  outer loop
    vertex 116.3782231634986 100.97990127483004 0.3599999999999994
    vertex 116.38037177939844 97.80604870170751 0.35999999999999965
    vertex 116.38077531910955 100.9992868213082 0.3599999999999994
  endloop
endfacet
facet normal 0.0 0.0 1.0
  outer loop
    vertex 116.38077531910955 100.9992868213082 0.3599999999999994
    vertex 116.38037177939844 97.80604870170751 0.35999999999999965
    vertex 116.39894271292553 97.79835636917466 0.35999999999999965
  endloop
endfacet
facet normal 0.0 0.0 1.0
  outer loop
    vertex 116.46873416098883 97.61756750355791 0.3599999999999994
    vertex 115.25252585162467 97.79631099172896 0.3599999999999994
    vertex 115.25252585162467 97.61756750355791 0.3599999999999994
  endloop
endfacet
facet normal 0.0 0.0 1.0
  outer loop
    vertex 115.25252585162467 97.79631099172896 0.3599999999999994
    vertex 116.46873416098883 97.61756750355791 0.3599999999999994
    vertex 116.34051364645266 97.65729612445902 0.35999999999999965
  endloop
endfacet
facet normal 0.0 0.0 1.0
  outer loop
    vertex 115.25252585162467 97.79631099172896 0.3599999999999994
    vertex 116.34051364645266 97.65729612445902 0.35999999999999965
    vertex 116.32194271292559 97.66498845699188 0.35999999999999965
  endloop
endfacet
facet normal 0.0 0.0 1.0
  outer loop
    vertex 115.25252585162467 97.79631099172896 0.3599999999999994
    vertex 116.32194271292559 97.66498845699188 0.35999999999999965
    vertex 116.30599549077421 97.6772251909319 0.35999999999999965
  endloop
endfacet
facet normal 0.0 0.0 1.0
  outer loop
    vertex 115.25252585162467 97.79631099172896 0.3599999999999994
    vertex 116.30599549077421 97.6772251909319 0.35999999999999965
    vertex 116.29375875683415 97.69317241308327 0.35999999999999965
  endloop
endfacet
facet normal 0.0 0.0 1.0
  outer loop
    vertex 115.25252585162467 97.79631099172896 0.3599999999999994
    vertex 116.29375875683415 97.69317241308327 0.35999999999999965
    vertex 116.23679575830853 97.79631099172896 0.3599999999999994
  endloop
endfacet
facet normal 0.0 0.0 1.0
  outer loop
    vertex 116.23679575830853 97.79631099172896 0.3599999999999994
    vertex 116.29375875683415 97.69317241308327 0.35999999999999965
    vertex 116.28606642430131 97.71174334661039 0.35999999999999965
  endloop
endfacet
facet normal 0.0 0.0 1.0
  outer loop
    vertex 116.23679575830853 97.79631099172896 0.3599999999999994
    vertex 116.28606642430131 97.71174334661039 0.35999999999999965
    vertex 116.28344271292558 97.73167241308325 0.35999999999999965
  endloop
endfacet
facet normal 0.0 0.0 1.0
  outer loop
    vertex 116.23679575830853 97.79631099172896 0.3599999999999994
    vertex 116.28344271292558 97.73167241308325 0.35999999999999965
    vertex 116.23679575830853 100.88281774231496 0.3599999999999994
  endloop
endfacet
facet normal 0.0 0.0 1.0
  outer loop
    vertex 116.23679575830853 100.88281774231496 0.3599999999999994
    vertex 116.28344271292558 97.73167241308325 0.35999999999999965
    vertex 116.2410100163661 100.9618368213082 0.3599999999999994
  endloop
endfacet
facet normal 0.0 0.0 1.0
  outer loop
    vertex 116.2410100163661 100.9618368213082 0.3599999999999994
    vertex 116.28344271292558 97.73167241308325 0.35999999999999965
    vertex 116.25291302119867 100.94632452339734 0.3599999999999994
  endloop
endfacet
facet normal 0.0 0.0 1.0
  outer loop
    vertex 116.25291302119867 100.94632452339734 0.3599999999999994
    vertex 116.28344271292558 97.73167241308325 0.35999999999999965
    vertex 116.26842531910957 100.93442151856475 0.3599999999999994
  endloop
endfacet
facet normal 0.0 0.0 1.0
  outer loop
    vertex 116.34051364645266 97.65729612445902 0.35999999999999965
    vertex 116.46873416098883 97.61756750355791 0.3599999999999994
    vertex 116.36044271292553 97.65467241308328 0.35999999999999965
  endloop
endfacet
facet normal 0.0 0.0 1.0
  outer loop
    vertex 116.36044271292553 97.65467241308328 0.35999999999999965
    vertex 116.46873416098883 97.61756750355791 0.3599999999999994
    vertex 116.38037177939844 97.65729612445902 0.35999999999999965
  endloop
endfacet
facet normal 0.0 0.0 1.0
  outer loop
    vertex 116.38037177939844 97.65729612445902 0.35999999999999965
    vertex 116.46873416098883 97.61756750355791 0.3599999999999994
    vertex 116.39894271292556 97.66498845699188 0.35999999999999965
  endloop
endfacet
facet normal 0.0 0.0 1.0
  outer loop
    vertex 116.39894271292556 97.66498845699188 0.35999999999999965
    vertex 116.46873416098883 97.61756750355791 0.3599999999999994
    vertex 116.41488993507693 97.6772251909319 0.35999999999999965
  endloop
endfacet
facet normal 0.0 0.0 1.0
  outer loop
    vertex 116.41488993507693 97.6772251909319 0.35999999999999965
    vertex 116.46873416098883 97.61756750355791 0.3599999999999994
    vertex 116.42712666901694 97.69317241308327 0.35999999999999965
  endloop
endfacet
facet normal 0.0 0.0 1.0
  outer loop
    vertex 116.42712666901694 97.69317241308327 0.35999999999999965
    vertex 116.46873416098883 97.61756750355791 0.3599999999999994
    vertex 116.43481900154984 97.71174334661039 0.35999999999999965
  endloop
endfacet
facet normal 0.0 0.0 1.0
  outer loop
    vertex 116.43481900154984 97.71174334661039 0.35999999999999965
    vertex 116.46873416098883 97.61756750355791 0.3599999999999994
    vertex 116.43744271292552 97.73167241308325 0.35999999999999965
  endloop
endfacet
facet normal 0.0 0.0 1.0
  outer loop
    vertex 113.6332571147517 101.12057909875791 0.3599999999999994
    vertex 113.7577274104137 101.06956279387003 0.3599999999999988
    vertex 116.46873416098883 101.12057909875791 0.3599999999999994
  endloop
endfacet
facet normal 0.0 0.0 1.0
  outer loop
    vertex 113.7577274104137 101.06956279387003 0.3599999999999988
    vertex 113.6332571147517 101.12057909875791 0.3599999999999994
    vertex 113.73834186393553 101.06701063825909 0.3599999999999988
  endloop
endfacet
facet normal 0.0 0.0 1.0
  outer loop
    vertex 113.73834186393553 101.06701063825909 0.3599999999999988
    vertex 113.6332571147517 101.12057909875791 0.3599999999999994
    vertex 113.72027741041369 101.05952809661349 0.3599999999999988
  endloop
endfacet
facet normal 0.0 0.0 1.0
  outer loop
    vertex 113.72027741041369 101.05952809661349 0.3599999999999988
    vertex 113.6332571147517 101.12057909875791 0.3599999999999994
    vertex 113.70476511250281 101.04762509178092 0.3599999999999988
  endloop
endfacet
facet normal 0.0 0.0 1.0
  outer loop
    vertex 113.70476511250281 101.04762509178092 0.3599999999999988
    vertex 113.6332571147517 101.12057909875791 0.3599999999999994
    vertex 113.69286210767024 101.03211279387003 0.3599999999999988
  endloop
endfacet
facet normal 0.0 0.0 1.0
  outer loop
    vertex 113.69286210767024 101.03211279387003 0.3599999999999988
    vertex 113.6332571147517 101.12057909875791 0.3599999999999994
    vertex 113.68537956602464 101.0140483403482 0.3599999999999988
  endloop
endfacet
facet normal 0.0 0.0 1.0
  outer loop
    vertex 113.68537956602464 101.0140483403482 0.3599999999999988
    vertex 113.6332571147517 101.12057909875791 0.3599999999999994
    vertex 113.6828274104137 100.99466279387005 0.3599999999999988
  endloop
endfacet
facet normal 0.0 0.0 1.0
  outer loop
    vertex 116.46873416098883 101.12057909875791 0.3599999999999994
    vertex 113.7577274104137 101.06956279387003 0.3599999999999988
    vertex 113.77711295689186 101.06701063825909 0.3599999999999988
  endloop
endfacet
facet normal 0.0 0.0 1.0
  outer loop
    vertex 116.46873416098883 101.12057909875791 0.3599999999999994
    vertex 113.77711295689186 101.06701063825909 0.3599999999999988
    vertex 113.79517741041367 101.05952809661349 0.3599999999999988
  endloop
endfacet
facet normal 0.0 0.0 1.0
  outer loop
    vertex 116.46873416098883 101.12057909875791 0.3599999999999994
    vertex 113.79517741041367 101.05952809661349 0.3599999999999988
    vertex 113.81068970832456 101.04762509178092 0.3599999999999988
  endloop
endfacet
facet normal 0.0 0.0 1.0
  outer loop
    vertex 116.46873416098883 101.12057909875791 0.3599999999999994
    vertex 113.81068970832456 101.04762509178092 0.3599999999999988
    vertex 113.82259271315714 101.03211279387004 0.3599999999999988
  endloop
endfacet
facet normal 0.0 0.0 1.0
  outer loop
    vertex 116.46873416098883 101.12057909875791 0.3599999999999994
    vertex 113.82259271315714 101.03211279387004 0.3599999999999988
    vertex 113.83007525480274 101.0140483403482 0.3599999999999988
  endloop
endfacet
facet normal 0.0 0.0 1.0
  outer loop
    vertex 116.46873416098883 101.12057909875791 0.3599999999999994
    vertex 113.83007525480274 101.0140483403482 0.3599999999999988
    vertex 113.83262741041368 100.99466279387005 0.3599999999999988
  endloop
endfacet
facet normal 0.0 0.0 1.0
  outer loop
    vertex 116.46873416098883 101.12057909875791 0.3599999999999994
    vertex 113.83262741041368 100.99466279387005 0.3599999999999988
    vertex 113.87101847119462 100.88281774231496 0.3599999999999994
  endloop
endfacet
facet normal 0.0 0.0 1.0
  outer loop
    vertex 113.87101847119462 100.88281774231496 0.3599999999999994
    vertex 113.83262741041368 100.99466279387005 0.3599999999999988
    vertex 113.87101847119462 97.79631099172896 0.3599999999999994
  endloop
endfacet
facet normal 0.0 0.0 1.0
  outer loop
    vertex 116.46873416098883 101.12057909875791 0.3599999999999994
    vertex 113.87101847119462 100.88281774231496 0.3599999999999994
    vertex 116.28648977263138 101.07163466569725 0.3599999999999994
  endloop
endfacet
facet normal 0.0 0.0 1.0
  outer loop
    vertex 116.28648977263138 101.07163466569725 0.3599999999999994
    vertex 113.87101847119462 100.88281774231496 0.3599999999999994
    vertex 116.26842531910955 101.06415212405167 0.3599999999999994
  endloop
endfacet
facet normal 0.0 0.0 1.0
  outer loop
    vertex 116.26842531910955 101.06415212405167 0.3599999999999994
    vertex 113.87101847119462 100.88281774231496 0.3599999999999994
    vertex 116.25291302119867 101.0522491192191 0.3599999999999994
  endloop
endfacet
facet normal 0.0 0.0 1.0
  outer loop
    vertex 116.25291302119867 101.0522491192191 0.3599999999999994
    vertex 113.87101847119462 100.88281774231496 0.3599999999999994
    vertex 116.2410100163661 101.03673682130821 0.3599999999999994
  endloop
endfacet
facet normal 0.0 0.0 1.0
  outer loop
    vertex 116.2410100163661 101.03673682130821 0.3599999999999994
    vertex 113.87101847119462 100.88281774231496 0.3599999999999994
    vertex 116.2335274747205 101.01867236778638 0.3599999999999994
  endloop
endfacet
facet normal 0.0 0.0 1.0
  outer loop
    vertex 116.2335274747205 101.01867236778638 0.3599999999999994
    vertex 113.87101847119462 100.88281774231496 0.3599999999999994
    vertex 116.23097531910955 100.9992868213082 0.3599999999999994
  endloop
endfacet
facet normal 0.0 0.0 1.0
  outer loop
    vertex 116.46873416098883 101.12057909875791 0.3599999999999994
    vertex 116.28648977263138 101.07163466569725 0.3599999999999994
    vertex 116.30587531910956 101.07418682130822 0.3599999999999994
  endloop
endfacet
facet normal 0.0 0.0 1.0
  outer loop
    vertex 116.46873416098883 101.12057909875791 0.3599999999999994
    vertex 116.30587531910956 101.07418682130822 0.3599999999999994
    vertex 116.32526086558771 101.07163466569725 0.3599999999999994
  endloop
endfacet
facet normal 0.0 0.0 1.0
  outer loop
    vertex 116.46873416098883 101.12057909875791 0.3599999999999994
    vertex 116.32526086558771 101.07163466569725 0.3599999999999994
    vertex 116.34332531910954 101.06415212405167 0.3599999999999994
  endloop
endfacet
facet normal 0.0 0.0 1.0
  outer loop
    vertex 116.46873416098883 101.12057909875791 0.3599999999999994
    vertex 116.34332531910954 101.06415212405167 0.3599999999999994
    vertex 116.35883761702043 101.0522491192191 0.3599999999999994
  endloop
endfacet
facet normal 0.0 0.0 1.0
  outer loop
    vertex 116.46873416098883 101.12057909875791 0.3599999999999994
    vertex 116.35883761702043 101.0522491192191 0.3599999999999994
    vertex 116.370740621853 101.03673682130822 0.3599999999999994
  endloop
endfacet
facet normal 0.0 0.0 1.0
  outer loop
    vertex 116.46873416098883 101.12057909875791 0.3599999999999994
    vertex 116.370740621853 101.03673682130822 0.3599999999999994
    vertex 116.3782231634986 101.01867236778638 0.3599999999999994
  endloop
endfacet
facet normal 0.0 0.0 1.0
  outer loop
    vertex 116.46873416098883 101.12057909875791 0.3599999999999994
    vertex 116.3782231634986 101.01867236778638 0.3599999999999994
    vertex 116.38077531910955 100.9992868213082 0.3599999999999994
  endloop
endfacet
facet normal 0.0 0.0 1.0
  outer loop
    vertex 116.46873416098883 101.12057909875791 0.3599999999999994
    vertex 116.38077531910955 100.9992868213082 0.3599999999999994
    vertex 116.39894271292553 97.79835636917466 0.35999999999999965
  endloop
endfacet
facet normal 0.0 0.0 1.0
  outer loop
    vertex 116.46873416098883 101.12057909875791 0.3599999999999994
    vertex 116.39894271292553 97.79835636917466 0.35999999999999965
    vertex 116.41488993507693 97.78611963523464 0.35999999999999965
  endloop
endfacet
facet normal 0.0 0.0 1.0
  outer loop
    vertex 116.46873416098883 101.12057909875791 0.3599999999999994
    vertex 116.41488993507693 97.78611963523464 0.35999999999999965
    vertex 116.42712666901694 97.77017241308332 0.35999999999999965
  endloop
endfacet
facet normal 0.0 0.0 1.0
  outer loop
    vertex 116.46873416098883 101.12057909875791 0.3599999999999994
    vertex 116.42712666901694 97.77017241308332 0.35999999999999965
    vertex 116.43481900154984 97.75160147955614 0.35999999999999965
  endloop
endfacet
facet normal 0.0 0.0 1.0
  outer loop
    vertex 116.46873416098883 101.12057909875791 0.3599999999999994
    vertex 116.43481900154984 97.75160147955614 0.35999999999999965
    vertex 116.43744271292552 97.73167241308325 0.35999999999999965
  endloop
endfacet
facet normal 0.0 0.0 1.0
  outer loop
    vertex 116.46873416098883 101.12057909875791 0.3599999999999994
    vertex 116.43744271292552 97.73167241308325 0.35999999999999965
    vertex 116.46873416098883 97.61756750355791 0.3599999999999994
  endloop
endfacet
facet normal 0.0 0.0 1.0
  outer loop
    vertex 116.46873416098883 101.12057909875791 0.3599999999999994
    vertex 116.46873416098883 97.61756750355791 0.3599999999999994
    vertex 116.46873416098883 98.33462926879656 0.3599999999999994
  endloop
endfacet
facet normal 0.0 0.0 1.0
  outer loop
    vertex 116.46873416098883 101.12057909875791 0.3599999999999994
    vertex 116.46873416098883 98.33462926879656 0.3599999999999994
    vertex 116.46873416098883 100.47372185908627 0.3599999999999994
  endloop
endfacet
facet normal 0.0 0.0 1.0
  outer loop
    vertex 113.6332571147517 97.61756750355791 0.3599999999999994
    vertex 113.6834178890028 97.74959967038357 0.3599999999999994
    vertex 113.6332571147517 101.12057909875791 0.3599999999999994
  endloop
endfacet
facet normal 0.0 0.0 1.0
  outer loop
    vertex 113.6834178890028 97.74959967038357 0.3599999999999994
    vertex 113.6332571147517 97.61756750355791 0.3599999999999994
    vertex 113.68589848884898 97.73075764390012 0.3599999999999994
  endloop
endfacet
facet normal 0.0 0.0 1.0
  outer loop
    vertex 113.68589848884898 97.73075764390012 0.3599999999999994
    vertex 113.6332571147517 97.61756750355791 0.3599999999999994
    vertex 113.69317123960732 97.71319967038357 0.3599999999999994
  endloop
endfacet
facet normal 0.0 0.0 1.0
  outer loop
    vertex 113.69317123960732 97.71319967038357 0.3599999999999994
    vertex 113.6332571147517 97.61756750355791 0.3599999999999994
    vertex 113.70474051533242 97.6981222967132 0.3599999999999994
  endloop
endfacet
facet normal 0.0 0.0 1.0
  outer loop
    vertex 113.70474051533242 97.6981222967132 0.3599999999999994
    vertex 113.6332571147517 97.61756750355791 0.3599999999999994
    vertex 113.71981788900283 97.68655302098807 0.3599999999999994
  endloop
endfacet
facet normal 0.0 0.0 1.0
  outer loop
    vertex 113.71981788900283 97.68655302098807 0.3599999999999994
    vertex 113.6332571147517 97.61756750355791 0.3599999999999994
    vertex 113.73737586251937 97.67928027022973 0.3599999999999994
  endloop
endfacet
facet normal 0.0 0.0 1.0
  outer loop
    vertex 113.73737586251937 97.67928027022973 0.3599999999999994
    vertex 113.6332571147517 97.61756750355791 0.3599999999999994
    vertex 113.75621788900281 97.67679967038357 0.3599999999999994
  endloop
endfacet
facet normal 0.0 0.0 1.0
  outer loop
    vertex 113.75621788900281 97.67679967038357 0.3599999999999994
    vertex 113.6332571147517 97.61756750355791 0.3599999999999994
    vertex 114.64719444158612 97.61756750355791 0.3599999999999994
  endloop
endfacet
facet normal 0.0 0.0 1.0
  outer loop
    vertex 113.6332571147517 101.12057909875791 0.3599999999999994
    vertex 113.6834178890028 97.74959967038357 0.3599999999999994
    vertex 113.6828274104137 100.99466279387005 0.3599999999999988
  endloop
endfacet
facet normal 0.0 0.0 1.0
  outer loop
    vertex 113.75621788900281 97.67679967038357 0.3599999999999994
    vertex 114.64719444158612 97.61756750355791 0.3599999999999994
    vertex 113.77505991548625 97.67928027022973 0.3599999999999994
  endloop
endfacet
facet normal 0.0 0.0 1.0
  outer loop
    vertex 113.77505991548625 97.67928027022973 0.3599999999999994
    vertex 114.64719444158612 97.61756750355791 0.3599999999999994
    vertex 113.79261788900283 97.68655302098807 0.3599999999999994
  endloop
endfacet
facet normal 0.0 0.0 1.0
  outer loop
    vertex 113.79261788900283 97.68655302098807 0.3599999999999994
    vertex 114.64719444158612 97.61756750355791 0.3599999999999994
    vertex 113.8076952626732 97.6981222967132 0.3599999999999994
  endloop
endfacet
facet normal 0.0 0.0 1.0
  outer loop
    vertex 113.8076952626732 97.6981222967132 0.3599999999999994
    vertex 114.64719444158612 97.61756750355791 0.3599999999999994
    vertex 113.81926453839833 97.71319967038359 0.3599999999999994
  endloop
endfacet
facet normal 0.0 0.0 1.0
  outer loop
    vertex 113.81926453839833 97.71319967038359 0.3599999999999994
    vertex 114.64719444158612 97.61756750355791 0.3599999999999994
    vertex 113.82653728915663 97.73075764390012 0.3599999999999994
  endloop
endfacet
facet normal 0.0 0.0 1.0
  outer loop
    vertex 113.82653728915663 97.73075764390012 0.3599999999999994
    vertex 114.64719444158612 97.61756750355791 0.3599999999999994
    vertex 113.82901788900283 97.74959967038357 0.3599999999999994
  endloop
endfacet
facet normal 0.0 0.0 1.0
  outer loop
    vertex 113.82901788900283 97.74959967038357 0.3599999999999994
    vertex 114.64719444158612 97.61756750355791 0.3599999999999994
    vertex 113.87101847119462 97.79631099172896 0.3599999999999994
  endloop
endfacet
facet normal 0.0 0.0 1.0
  outer loop
    vertex 113.82901788900283 97.74959967038357 0.3599999999999994
    vertex 113.87101847119462 97.79631099172896 0.3599999999999994
    vertex 113.83007525480274 100.97527724739187 0.3599999999999988
  endloop
endfacet
facet normal 0.0 0.0 1.0
  outer loop
    vertex 113.83007525480274 100.97527724739187 0.3599999999999988
    vertex 113.87101847119462 97.79631099172896 0.3599999999999994
    vertex 113.83262741041368 100.99466279387005 0.3599999999999988
  endloop
endfacet
facet normal 0.0 0.0 1.0
  outer loop
    vertex 113.87101847119462 97.79631099172896 0.3599999999999994
    vertex 114.64719444158612 97.61756750355791 0.3599999999999994
    vertex 114.64719444158612 97.79631099172896 0.3599999999999994
  endloop
endfacet
facet normal 0.0 0.0 1.0
  outer loop
    vertex 116.23679575830853 100.88281774231496 0.3599999999999994
    vertex 116.23097531910955 100.9992868213082 0.3599999999999994
    vertex 113.87101847119462 100.88281774231496 0.3599999999999994
  endloop
endfacet
facet normal 0.0 0.0 1.0
  outer loop
    vertex 116.23097531910955 100.9992868213082 0.3599999999999994
    vertex 116.23679575830853 100.88281774231496 0.3599999999999994
    vertex 116.2335274747205 100.97990127483004 0.3599999999999994
  endloop
endfacet
facet normal 0.0 0.0 1.0
  outer loop
    vertex 116.2335274747205 100.97990127483004 0.3599999999999994
    vertex 116.23679575830853 100.88281774231496 0.3599999999999994
    vertex 116.2410100163661 100.9618368213082 0.3599999999999994
  endloop
endfacet
facet normal 0.0 0.0 1.0
  outer loop
    vertex 113.6834178890028 97.74959967038357 0.3599999999999994
    vertex 113.68537956602464 100.97527724739187 0.3599999999999988
    vertex 113.6828274104137 100.99466279387005 0.3599999999999988
  endloop
endfacet
facet normal 0.0 0.0 1.0
  outer loop
    vertex 113.68537956602464 100.97527724739187 0.3599999999999988
    vertex 113.6834178890028 97.74959967038357 0.3599999999999994
    vertex 113.68589848884898 97.76844169686703 0.3599999999999994
  endloop
endfacet
facet normal 0.0 0.0 1.0
  outer loop
    vertex 113.68537956602464 100.97527724739187 0.3599999999999988
    vertex 113.68589848884898 97.76844169686703 0.3599999999999994
    vertex 113.69286210767024 100.95721279387004 0.3599999999999988
  endloop
endfacet
facet normal 0.0 0.0 1.0
  outer loop
    vertex 113.69286210767024 100.95721279387004 0.3599999999999988
    vertex 113.68589848884898 97.76844169686703 0.3599999999999994
    vertex 113.69317123960732 97.78599967038356 0.3599999999999994
  endloop
endfacet
facet normal 0.0 0.0 1.0
  outer loop
    vertex 113.69286210767024 100.95721279387004 0.3599999999999988
    vertex 113.69317123960732 97.78599967038356 0.3599999999999994
    vertex 113.70476511250281 100.94170049595915 0.3599999999999988
  endloop
endfacet
facet normal 0.0 0.0 1.0
  outer loop
    vertex 113.70476511250281 100.94170049595915 0.3599999999999988
    vertex 113.69317123960732 97.78599967038356 0.3599999999999994
    vertex 113.70474051533242 97.80107704405397 0.3599999999999994
  endloop
endfacet
facet normal 0.0 0.0 1.0
  outer loop
    vertex 113.70476511250281 100.94170049595915 0.3599999999999988
    vertex 113.70474051533242 97.80107704405397 0.3599999999999994
    vertex 113.7198178890028 97.81264631977908 0.3599999999999994
  endloop
endfacet
facet normal 0.0 0.0 1.0
  outer loop
    vertex 113.70476511250281 100.94170049595915 0.3599999999999988
    vertex 113.7198178890028 97.81264631977908 0.3599999999999994
    vertex 113.7202774104137 100.92979749112659 0.3599999999999988
  endloop
endfacet
facet normal 0.0 0.0 1.0
  outer loop
    vertex 113.7202774104137 100.92979749112659 0.3599999999999988
    vertex 113.7198178890028 97.81264631977908 0.3599999999999994
    vertex 113.73737586251937 97.81991907053741 0.3599999999999994
  endloop
endfacet
facet normal 0.0 0.0 1.0
  outer loop
    vertex 113.7202774104137 100.92979749112659 0.3599999999999988
    vertex 113.73737586251937 97.81991907053741 0.3599999999999994
    vertex 113.73834186393553 100.92231494948099 0.3599999999999988
  endloop
endfacet
facet normal 0.0 0.0 1.0
  outer loop
    vertex 113.73834186393553 100.92231494948099 0.3599999999999988
    vertex 113.73737586251937 97.81991907053741 0.3599999999999994
    vertex 113.75621788900281 97.82239967038358 0.3599999999999994
  endloop
endfacet
facet normal 0.0 0.0 1.0
  outer loop
    vertex 113.73834186393553 100.92231494948099 0.3599999999999988
    vertex 113.75621788900281 97.82239967038358 0.3599999999999994
    vertex 113.7577274104137 100.91976279387004 0.3599999999999988
  endloop
endfacet
facet normal 0.0 0.0 1.0
  outer loop
    vertex 113.7577274104137 100.91976279387004 0.3599999999999988
    vertex 113.75621788900281 97.82239967038358 0.3599999999999994
    vertex 113.77505991548625 97.81991907053741 0.3599999999999994
  endloop
endfacet
facet normal 0.0 0.0 1.0
  outer loop
    vertex 113.7577274104137 100.91976279387004 0.3599999999999988
    vertex 113.77505991548625 97.81991907053741 0.3599999999999994
    vertex 113.77711295689186 100.92231494948099 0.3599999999999988
  endloop
endfacet
facet normal 0.0 0.0 1.0
  outer loop
    vertex 113.77711295689186 100.92231494948099 0.3599999999999988
    vertex 113.77505991548625 97.81991907053741 0.3599999999999994
    vertex 113.79261788900281 97.81264631977908 0.3599999999999994
  endloop
endfacet
facet normal 0.0 0.0 1.0
  outer loop
    vertex 113.77711295689186 100.92231494948099 0.3599999999999988
    vertex 113.79261788900281 97.81264631977908 0.3599999999999994
    vertex 113.79517741041369 100.92979749112659 0.3599999999999988
  endloop
endfacet
facet normal 0.0 0.0 1.0
  outer loop
    vertex 113.79517741041369 100.92979749112659 0.3599999999999988
    vertex 113.79261788900281 97.81264631977908 0.3599999999999994
    vertex 113.8076952626732 97.80107704405397 0.3599999999999994
  endloop
endfacet
facet normal 0.0 0.0 1.0
  outer loop
    vertex 113.79517741041369 100.92979749112659 0.3599999999999988
    vertex 113.8076952626732 97.80107704405397 0.3599999999999994
    vertex 113.81068970832456 100.94170049595915 0.3599999999999988
  endloop
endfacet
facet normal 0.0 0.0 1.0
  outer loop
    vertex 113.81068970832456 100.94170049595915 0.3599999999999988
    vertex 113.8076952626732 97.80107704405397 0.3599999999999994
    vertex 113.81926453839833 97.78599967038357 0.3599999999999994
  endloop
endfacet
facet normal 0.0 0.0 1.0
  outer loop
    vertex 113.81068970832456 100.94170049595915 0.3599999999999988
    vertex 113.81926453839833 97.78599967038357 0.3599999999999994
    vertex 113.82259271315714 100.95721279387006 0.3599999999999988
  endloop
endfacet
facet normal 0.0 0.0 1.0
  outer loop
    vertex 113.82259271315714 100.95721279387006 0.3599999999999988
    vertex 113.81926453839833 97.78599967038357 0.3599999999999994
    vertex 113.82653728915663 97.76844169686703 0.3599999999999994
  endloop
endfacet
facet normal 0.0 0.0 1.0
  outer loop
    vertex 113.82259271315714 100.95721279387006 0.3599999999999988
    vertex 113.82653728915663 97.76844169686703 0.3599999999999994
    vertex 113.83007525480274 100.97527724739187 0.3599999999999988
  endloop
endfacet
facet normal 0.0 0.0 1.0
  outer loop
    vertex 113.83007525480274 100.97527724739187 0.3599999999999988
    vertex 113.82653728915663 97.76844169686703 0.3599999999999994
    vertex 113.82901788900283 97.74959967038357 0.3599999999999994
  endloop
endfacet
facet normal -1.627844751076189e-33 -1.0 8.292450833662327e-17
  outer loop
    vertex 115.73519135689506 100.28603073465699 0.08000000000000071
    vertex 114.83736182671241 100.28603073465699 -1.127986593019159e-15
    vertex 115.73519135689506 100.28603073465699 -1.127986593019159e-15
  endloop
endfacet
facet normal -1.627844751076189e-33 -1.0 8.292450833662327e-17
  outer loop
    vertex 114.83736182671241 100.28603073465699 -1.127986593019159e-15
    vertex 115.73519135689506 100.28603073465699 0.08000000000000071
    vertex 114.83736182671241 100.28603073465699 0.08000000000000071
  endloop
endfacet
facet normal 0.0 1.0 0.0
  outer loop
    vertex 113.6332571147517 101.12057909875791 0.3599999999999994
    vertex 116.46873416098883 101.12057909875791 -5.639932965095795e-16
    vertex 113.6332571147517 101.12057909875791 -5.639932965095795e-16
  endloop
endfacet
facet normal 0.0 1.0 0.0
  outer loop
    vertex 116.46873416098883 101.12057909875791 -5.639932965095795e-16
    vertex 113.6332571147517 101.12057909875791 0.3599999999999994
    vertex 116.46873416098883 101.12057909875791 0.3599999999999994
  endloop
endfacet
facet normal 1.0 0.0 0.0
  outer loop
    vertex 116.46873416098883 101.12057909875791 -5.639932965095795e-16
    vertex 116.46873416098883 97.61756750355791 0.3599999999999994
    vertex 116.46873416098883 97.61756750355791 -5.639932965095795e-16
  endloop
endfacet
facet normal 1.0 0.0 0.0
  outer loop
    vertex 116.46873416098883 97.61756750355791 0.3599999999999994
    vertex 116.46873416098883 101.12057909875791 -5.639932965095795e-16
    vertex 116.46873416098883 98.33462926879656 0.3599999999999994
  endloop
endfacet
facet normal 1.0 0.0 0.0
  outer loop
    vertex 116.46873416098883 98.33462926879656 0.3599999999999994
    vertex 116.46873416098883 101.12057909875791 -5.639932965095795e-16
    vertex 116.46873416098883 100.47372185908627 0.3599999999999994
  endloop
endfacet
facet normal 1.0 0.0 0.0
  outer loop
    vertex 116.46873416098883 100.47372185908627 0.3599999999999994
    vertex 116.46873416098883 101.12057909875791 -5.639932965095795e-16
    vertex 116.46873416098883 101.12057909875791 0.3599999999999994
  endloop
endfacet
endsolid Sketchup models ankle
